<svg width="512" height="512" viewBox="0 0 512 512" fill="none" xmlns="http://www.w3.org/2000/svg">
<path d="M488 294.093V377.171C488 381.402 486.314 385.46 483.314 388.451C480.314 391.443 476.245 393.124 472.001 393.124H435.005C434.512 405.47 429.251 417.147 420.321 425.712C411.392 434.278 399.487 439.069 387.097 439.081C374.706 439.094 362.791 434.329 353.844 425.782C344.897 417.235 339.611 405.568 339.093 393.224H172.987C172.843 399.509 171.458 405.704 168.913 411.456C166.367 417.207 162.711 422.403 158.152 426.745C148.944 435.515 136.621 440.278 123.891 439.987C111.162 439.697 99.07 434.375 90.2753 425.194C81.4806 416.013 76.7037 403.724 76.9954 391.03H39.9986C35.7555 391.03 31.6862 389.349 28.6859 386.358C25.6856 383.366 24 379.308 24 375.077V335.243C23.9987 328.267 26.2899 321.483 30.5229 315.93C34.7559 310.376 40.6975 306.359 47.438 304.493L137.37 279.565C224.123 187.723 356.661 174.612 468.212 255.436C474.337 259.863 479.324 265.674 482.764 272.393C486.203 279.113 487.998 286.549 488 294.093Z" fill="#2DA195"/>
<path d="M419.93 226.58L396.25 261.47C391.752 267.042 386.064 271.537 379.603 274.626C373.142 277.715 366.071 279.319 358.91 279.32H137.25C209.53 202.59 316.63 177.85 419.93 226.58Z" fill="#D6F4FC"/>
<path d="M434.8 393.22C434.427 402.624 431.299 411.71 425.803 419.35C420.308 426.99 412.687 432.845 403.89 436.189C395.093 439.532 385.508 440.216 376.325 438.155C367.143 436.094 358.768 431.379 352.244 424.596C345.72 417.814 341.334 409.263 339.63 400.007C337.927 390.752 338.982 381.2 342.664 372.539C346.347 363.878 352.493 356.491 360.341 351.296C368.188 346.101 377.389 343.327 386.8 343.32C414.45 343.32 436.07 366.57 434.8 393.22Z" fill="#42434D"/>
<path d="M172.8 393.32C172.408 402.718 169.263 411.794 163.756 419.421C158.25 427.047 150.623 432.887 141.825 436.215C133.027 439.543 123.445 440.213 114.27 438.141C105.094 436.069 96.7294 431.347 90.2151 424.561C83.7008 417.776 79.3238 409.225 77.6281 399.973C75.9324 390.721 76.9926 381.174 80.677 372.519C84.3615 363.864 90.5078 356.482 98.3522 351.291C106.197 346.1 115.393 343.328 124.8 343.32C131.275 343.314 137.685 344.619 143.643 347.155C149.601 349.692 154.984 353.407 159.468 358.078C163.953 362.75 167.446 368.28 169.737 374.336C172.028 380.393 173.07 386.85 172.8 393.32Z" fill="#42434D"/>
<path d="M488 293.9V377.22C488 381.463 486.314 385.533 483.314 388.534C480.313 391.534 476.243 393.22 472 393.22C468.409 393.22 464.965 391.793 462.426 389.254C459.887 386.715 458.46 383.271 458.46 379.68V310.9C458.467 303.338 456.684 295.882 453.257 289.142C449.829 282.402 444.855 276.569 438.74 272.12C433.05 267.99 426.29 263.39 418.54 258.67C416.696 257.539 415.1 256.047 413.85 254.282C412.599 252.518 411.719 250.518 411.263 248.404C410.806 246.289 410.784 244.104 411.196 241.981C411.608 239.858 412.446 237.84 413.66 236.05L420.09 226.58C437.006 234.574 453.139 244.129 468.28 255.12C474.395 259.569 479.369 265.402 482.797 272.142C486.224 278.882 488.007 286.338 488 293.9Z" fill="#3DA89C"/>
<path d="M149 349.56C155.46 353.29 152.68 363.12 145.22 363.1C120 363.1 96.88 383.27 97.02 411.39C97.02 418.85 87.24 421.69 83.5 415.24C65 383.45 87.92 343.15 125 343.15C133.425 343.132 141.706 345.343 149 349.56Z" fill="#4D4E59"/>
<path d="M410.82 349.56C417.28 353.29 414.5 363.12 407.04 363.1C381.82 363.1 358.7 383.27 358.84 411.39C358.84 418.85 349.06 421.69 345.32 415.24C326.87 383.45 349.75 343.15 386.84 343.15C395.259 343.135 403.532 345.347 410.82 349.56Z" fill="#4D4E59"/>
<path d="M137.41 279.32C150.94 279.32 154.07 298.25 141.26 302.6L77.44 324.33C70.6989 326.201 64.7568 330.23 60.5234 335.8C56.2901 341.37 53.9987 348.174 54 355.17V377.12C54 380.833 52.525 384.394 49.8995 387.02C47.274 389.645 43.713 391.12 40 391.12C35.7565 391.12 31.6869 389.434 28.6863 386.434C25.6857 383.433 24 379.363 24 375.12V335.17C23.9987 328.174 26.2901 321.37 30.5234 315.8C34.7568 310.23 40.6989 306.201 47.44 304.33L137.38 279.33L137.41 279.32Z" fill="#039B8B"/>
<path d="M419.93 226.58L411.58 238.88C410.083 241.091 407.91 242.758 405.385 243.629C402.861 244.5 400.122 244.528 397.58 243.71C321.09 218.9 244.74 232.83 184 276.9C181.868 278.464 179.294 279.312 176.65 279.32H137.25C208.46 203.72 315.48 177.31 419.93 226.58Z" fill="#E8F8FC"/>
<path d="M309.91 279.32H293.77L283.89 203.2C289 202.55 294.42 202.06 299.84 201.77L309.91 279.32Z" fill="#BDEFFC"/>
<path d="M413.08 222.84C454.501 222.84 488.08 189.261 488.08 147.84C488.08 106.419 454.501 72.84 413.08 72.84C371.659 72.84 338.08 106.419 338.08 147.84C338.08 189.261 371.659 222.84 413.08 222.84Z" fill="#FE4F60"/>
<path d="M419.35 106.67C408.437 110.564 398.523 116.829 390.32 125.012C382.117 133.196 375.83 143.096 371.91 154C365.48 172.21 338.08 168.79 338.08 147.83C338.08 106.35 372.51 72.25 414.13 72.83C433.66 73.12 437.77 100.2 419.35 106.67Z" fill="#FF6D7A"/>
<path d="M424.39 147.84L445.59 126.64C447.09 125.139 447.932 123.103 447.931 120.981C447.93 118.859 447.086 116.825 445.585 115.325C444.842 114.582 443.959 113.993 442.989 113.592C442.018 113.19 440.977 112.984 439.926 112.984C437.804 112.985 435.77 113.829 434.27 115.33L413.08 136.52L391.89 115.33C390.39 113.829 388.355 112.985 386.234 112.984C384.112 112.983 382.076 113.825 380.575 115.325C379.074 116.825 378.23 118.859 378.229 120.981C378.228 123.103 379.07 125.139 380.57 126.64L401.77 147.84L380.57 169C379.07 170.501 378.228 172.537 378.229 174.659C378.23 176.78 379.074 178.815 380.575 180.315C382.076 181.815 384.112 182.657 386.234 182.656C388.355 182.655 390.39 181.811 391.89 180.31L413.08 159.12L434.27 180.31C435.77 181.811 437.804 182.655 439.926 182.656C442.048 182.657 444.084 181.815 445.585 180.315C447.086 178.815 447.93 176.78 447.931 174.659C447.932 172.537 447.09 170.501 445.59 169L424.39 147.84Z" fill="white"/>
</svg>
