<svg width="44" height="57" viewBox="0 0 44 57" fill="none" xmlns="http://www.w3.org/2000/svg">
<path d="M21.585 0.5C32.4532 0.500066 41.4411 9.12795 42.6416 20.2783C42.8865 27.7612 39.9104 34.1138 35.6709 39.875C31.5231 45.5117 26.2258 50.5135 21.5879 55.459C17.4782 50.9781 12.1354 45.6701 7.83496 39.7715C3.41047 33.7026 0.167925 27.1037 0.526367 20.2783C1.72684 9.12782 10.7166 0.5 21.585 0.5Z" fill="white" stroke="#101537"/>
<path d="M21.3805 12.5566C25.9409 12.5569 29.6803 16.4536 29.6803 21.3145C29.6803 26.1753 25.9409 30.072 21.3805 30.0723C16.82 30.0723 13.0797 26.1754 13.0797 21.3145C13.0797 16.4535 16.82 12.5566 21.3805 12.5566Z" fill="#23A16F" stroke="white"/>
</svg>
