<svg width="55" height="55" viewBox="0 0 55 55" fill="none" xmlns="http://www.w3.org/2000/svg">
<path fill-rule="evenodd" clip-rule="evenodd" d="M27.5 9.16659C22.4374 9.16659 18.3333 13.2706 18.3333 18.3333C18.3333 23.3959 22.4374 27.4999 27.5 27.4999C32.5626 27.4999 36.6666 23.3959 36.6666 18.3333C36.6666 13.2706 32.5626 9.16659 27.5 9.16659ZM35.8439 29.2631C39.1301 26.7505 41.25 22.7894 41.25 18.3333C41.25 10.7393 35.0939 4.58325 27.5 4.58325C19.906 4.58325 13.75 10.7393 13.75 18.3333C13.75 22.7894 15.8698 26.7505 19.156 29.2631C16.8518 30.2824 14.732 31.7248 12.9159 33.5408C11.5136 34.9432 10.3339 36.5268 9.39986 38.2366C7.67626 41.3918 8.37917 44.6089 10.3202 46.8837C12.1889 49.0736 15.1823 50.4166 18.3333 50.4166H36.6666C39.8176 50.4166 42.811 49.0736 44.6797 46.8837C46.6208 44.6089 47.3237 41.3918 45.6001 38.2366C44.666 36.5268 43.4864 34.9432 42.084 33.5408C40.268 31.7248 38.1481 30.2824 35.8439 29.2631ZM27.5 32.0833C23.2455 32.0833 19.1652 33.7734 16.1568 36.7817C15.066 37.8726 14.1486 39.1042 13.4222 40.4339C12.7187 41.7216 12.9456 42.8994 13.8068 43.9087C14.7404 45.0028 16.4217 45.8333 18.3333 45.8333H36.6666C38.5783 45.8333 40.2595 45.0028 41.1931 43.9087C42.0543 42.8994 42.2812 41.7217 41.5778 40.4339C40.8514 39.1042 39.934 37.8726 38.8431 36.7817C35.8347 33.7734 31.7545 32.0833 27.5 32.0833Z" fill="white"/>
</svg>
