<svg width="64" height="62" viewBox="0 0 64 62" fill="none" xmlns="http://www.w3.org/2000/svg">
<path d="M35.9106 27.0746L58.8124 36.4611C58.9763 36.5283 59.095 36.6747 59.1266 36.849L60.1118 42.2897C60.18 42.6662 59.8309 42.9851 59.4621 42.883L33.4629 35.6838C33.1866 35.6073 33.0243 35.3207 33.1008 35.0444L35.213 27.4164C35.2961 27.1166 35.6228 26.9566 35.9106 27.0746Z" fill="white" stroke="white" stroke-width="0.576811"/>
<path d="M28.065 27.0023L5.08657 36.1997C4.92211 36.2656 4.80227 36.4109 4.76926 36.585L3.73923 42.0174C3.66793 42.3934 4.01435 42.7151 4.38396 42.616L30.4417 35.6314C30.7186 35.5572 30.8832 35.272 30.809 34.9951L28.7597 27.3499C28.6792 27.0494 28.3538 26.8867 28.065 27.0023Z" fill="white" stroke="white" stroke-width="0.576811"/>
<path d="M31.3239 51.1483L44.4359 54.5725C44.5285 54.5967 44.6035 54.6656 44.6353 54.7559L46.813 60.928C46.8877 61.1395 46.703 61.3514 46.4834 61.3066L31.3924 58.2277C31.2796 58.2048 31.1635 58.2048 31.0506 58.2273L16.2502 61.1829C16.033 61.2262 15.8504 61.0185 15.9207 60.8085L17.9861 54.65C18.0173 54.5571 18.0932 54.4855 18.1881 54.4613L31.1794 51.1477C31.2267 51.1356 31.2767 51.1359 31.3239 51.1483Z" fill="white" stroke="white" stroke-width="0.576811"/>
<path d="M31.4801 1.06457C34.2478 1.07598 36.4824 3.3292 36.4711 6.09691L36.2756 53.5086L26.2523 53.4673L26.4478 6.05559C26.4593 3.28794 28.7124 1.05327 31.4801 1.06457Z" fill="white" stroke="white" stroke-width="0.576811"/>
</svg>
